<?xml version="1.0" standalone="no"?>
<!DOCTYPE svg PUBLIC "-//W3C//DTD SVG 20010904//EN"
 "http://www.w3.org/TR/2001/REC-SVG-20010904/DTD/svg10.dtd">
<svg version="1.0" xmlns="http://www.w3.org/2000/svg"
 width="1184.000000pt" height="1184.000000pt" viewBox="0 0 1184.000000 1184.000000"
 preserveAspectRatio="xMidYMid meet">
<metadata>
Created by potrace 1.11, written by Peter Selinger 2001-2013
</metadata>
<g transform="translate(0.000000,1184.000000) scale(0.100000,-0.100000)"
fill="#000000" stroke="none">
<path d="M8258 10475 c-2 -2 -745 -6 -1653 -10 -907 -5 -1702 -9 -1765 -10
-63 -2 -457 -4 -875 -4 -418 -1 -765 -5 -771 -9 -11 -7 -146 -243 -1394 -2432
-359 -630 -766 -1343 -904 -1585 -138 -242 -252 -447 -254 -456 -2 -9 190
-347 426 -750 236 -404 804 -1375 1262 -2159 459 -784 850 -1454 869 -1489
l36 -63 910 6 c501 3 1506 8 2235 11 1439 6 2011 12 2022 23 3 4 208 360 454
792 436 765 1139 2000 1778 3120 271 475 315 558 307 577 -17 38 -2573 4407
-2587 4422 -10 12 -87 24 -96 16z"/>
</g>
</svg>
