<svg id="svg" version="1.1" width="400" height="362.16216216216213" viewBox="0 0 400 362.16216216216213" xmlns="http://www.w3.org/2000/svg" xmlns:xlink="http://www.w3.org/1999/xlink" ><g id="svgg"><path id="path0" d="M251.239 27.582 C 251.208 27.608,227.086 27.744,197.635 27.883 C 168.184 28.023,140.971 28.179,137.162 28.229 C 133.353 28.280,125.213 28.334,119.072 28.350 L 107.908 28.378 86.836 65.287 C 75.246 85.587,58.516 114.890,49.656 130.405 C 40.797 145.921,33.047 159.527,32.433 160.642 C 31.820 161.757,29.188 166.394,26.584 170.946 C 23.980 175.498,21.849 179.375,21.848 179.561 C 21.848 179.747,25.314 185.828,29.551 193.074 C 33.788 200.321,53.294 233.691,72.897 267.230 C 92.501 300.769,108.813 328.598,109.146 329.074 C 109.740 329.922,109.824 329.937,113.575 329.875 C 115.678 329.840,142.483 329.696,173.142 329.556 C 203.801 329.416,232.002 329.258,235.811 329.205 C 239.620 329.152,251.934 329.095,263.176 329.079 L 283.615 329.049 288.836 319.845 C 291.707 314.783,300.685 299.012,308.787 284.797 C 316.889 270.583,330.875 246.030,339.867 230.236 C 348.859 214.443,359.279 196.147,363.022 189.581 L 369.828 177.641 326.538 103.601 C 302.729 62.879,282.951 29.055,282.587 28.437 L 281.926 27.314 266.611 27.424 C 258.187 27.484,251.270 27.555,251.239 27.582 M246.800 54.630 C 259.922 58.697,269.131 69.557,272.729 85.210 C 273.724 89.539,274.078 164.305,273.135 170.752 C 270.808 186.648,260.138 199.908,246.791 203.490 C 242.534 204.633,238.908 204.724,197.720 204.727 L 156.757 204.730 156.757 253.209 L 156.757 301.689 140.709 301.689 L 124.662 301.689 124.617 197.720 C 124.566 79.303,124.495 89.700,125.379 85.304 C 128.596 69.289,138.857 57.673,152.703 54.371 C 155.078 53.804,158.033 53.770,199.831 53.831 L 244.426 53.895 246.800 54.630 M157.457 92.782 C 156.758 93.670,156.757 93.758,156.757 130.113 L 156.757 166.554 198.114 166.554 C 220.861 166.554,239.718 166.460,240.019 166.344 C 241.583 165.744,241.554 166.438,241.554 129.097 L 241.554 93.971 240.679 92.931 L 239.805 91.892 198.981 91.892 L 158.157 91.892 157.457 92.782 " stroke="none" fill="#bb8bdb" fill-rule="evenodd"></path><path id="path1" d="M156.757 53.940 C 140.615 55.516,127.973 69.017,125.173 87.669 C 124.731 90.617,124.666 104.449,124.664 196.372 L 124.662 301.696 140.456 301.608 L 156.250 301.520 156.336 252.966 L 156.421 204.411 200.086 204.312 L 243.750 204.213 246.348 203.459 C 260.104 199.463,269.987 187.512,272.889 171.364 C 273.778 166.415,273.793 92.894,272.906 87.669 C 269.751 69.083,257.751 55.932,242.239 54.062 C 239.628 53.747,159.897 53.633,156.757 53.940 M240.731 92.590 L 241.723 93.625 241.823 127.978 C 241.932 165.144,241.945 164.720,240.647 166.017 L 239.773 166.892 198.096 166.892 L 156.419 166.892 156.419 130.558 C 156.419 91.666,156.368 92.883,158.024 91.919 C 158.416 91.690,172.254 91.571,199.177 91.564 L 239.738 91.554 240.731 92.590 " stroke="none" fill="#4c1484" fill-rule="evenodd"></path><path id="path2" d="M233.530 27.618 C 236.829 27.673,242.226 27.673,245.524 27.618 C 248.822 27.562,246.123 27.517,239.527 27.517 C 232.931 27.517,230.232 27.562,233.530 27.618 M172.889 27.956 C 176.280 28.011,181.829 28.011,185.220 27.956 C 188.611 27.900,185.836 27.855,179.054 27.855 C 172.272 27.855,169.497 27.900,172.889 27.956 M114.105 28.293 C 117.124 28.349,122.065 28.349,125.084 28.293 C 128.104 28.237,125.633 28.192,119.595 28.192 C 113.556 28.192,111.085 28.237,114.105 28.293 M103.547 35.473 C 103.259 36.030,103.099 36.486,103.192 36.486 C 103.285 36.486,103.597 36.030,103.885 35.473 C 104.173 34.916,104.333 34.459,104.240 34.459 C 104.147 34.459,103.836 34.916,103.547 35.473 M102.196 37.838 C 101.908 38.395,101.748 38.851,101.841 38.851 C 101.934 38.851,102.246 38.395,102.534 37.838 C 102.822 37.280,102.982 36.824,102.889 36.824 C 102.796 36.824,102.484 37.280,102.196 37.838 M100.845 40.203 C 100.556 40.760,100.396 41.216,100.489 41.216 C 100.582 41.216,100.894 40.760,101.182 40.203 C 101.471 39.645,101.631 39.189,101.538 39.189 C 101.445 39.189,101.133 39.645,100.845 40.203 M99.493 42.568 C 99.205 43.125,99.045 43.581,99.138 43.581 C 99.231 43.581,99.543 43.125,99.831 42.568 C 100.119 42.010,100.279 41.554,100.186 41.554 C 100.093 41.554,99.782 42.010,99.493 42.568 M98.142 44.932 C 97.854 45.490,97.694 45.946,97.787 45.946 C 97.880 45.946,98.191 45.490,98.480 44.932 C 98.768 44.375,98.928 43.919,98.835 43.919 C 98.742 43.919,98.430 44.375,98.142 44.932 M96.791 47.297 C 96.502 47.855,96.342 48.311,96.435 48.311 C 96.528 48.311,96.840 47.855,97.128 47.297 C 97.417 46.740,97.576 46.284,97.484 46.284 C 97.391 46.284,97.079 46.740,96.791 47.297 M95.439 49.662 C 95.151 50.220,94.991 50.676,95.084 50.676 C 95.177 50.676,95.489 50.220,95.777 49.662 C 96.065 49.105,96.225 48.649,96.132 48.649 C 96.039 48.649,95.727 49.105,95.439 49.662 M94.088 52.027 C 93.800 52.584,93.640 53.041,93.733 53.041 C 93.826 53.041,94.137 52.584,94.426 52.027 C 94.714 51.470,94.874 51.014,94.781 51.014 C 94.688 51.014,94.376 51.470,94.088 52.027 M92.736 54.392 C 92.448 54.949,92.288 55.405,92.381 55.405 C 92.474 55.405,92.786 54.949,93.074 54.392 C 93.363 53.834,93.522 53.378,93.430 53.378 C 93.337 53.378,93.025 53.834,92.736 54.392 M91.385 56.757 C 91.097 57.314,90.937 57.770,91.030 57.770 C 91.123 57.770,91.435 57.314,91.723 56.757 C 92.011 56.199,92.171 55.743,92.078 55.743 C 91.985 55.743,91.673 56.199,91.385 56.757 M90.034 59.122 C 89.746 59.679,89.586 60.135,89.679 60.135 C 89.771 60.135,90.083 59.679,90.372 59.122 C 90.660 58.564,90.820 58.108,90.727 58.108 C 90.634 58.108,90.322 58.564,90.034 59.122 M88.682 61.486 C 88.394 62.044,88.234 62.500,88.327 62.500 C 88.420 62.500,88.732 62.044,89.020 61.486 C 89.309 60.929,89.468 60.473,89.375 60.473 C 89.283 60.473,88.971 60.929,88.682 61.486 M87.331 63.851 C 87.043 64.409,86.883 64.865,86.976 64.865 C 87.069 64.865,87.381 64.409,87.669 63.851 C 87.957 63.294,88.117 62.838,88.024 62.838 C 87.931 62.838,87.619 63.294,87.331 63.851 M85.980 66.216 C 85.691 66.774,85.532 67.230,85.625 67.230 C 85.717 67.230,86.029 66.774,86.318 66.216 C 86.606 65.659,86.766 65.203,86.673 65.203 C 86.580 65.203,86.268 65.659,85.980 66.216 M84.628 68.581 C 84.340 69.139,84.180 69.595,84.273 69.595 C 84.366 69.595,84.678 69.139,84.966 68.581 C 85.254 68.024,85.414 67.568,85.321 67.568 C 85.229 67.568,84.917 68.024,84.628 68.581 M62.331 107.770 C 62.043 108.328,61.883 108.784,61.976 108.784 C 62.069 108.784,62.381 108.328,62.669 107.770 C 62.957 107.213,63.117 106.757,63.024 106.757 C 62.931 106.757,62.619 107.213,62.331 107.770 M22.804 177.027 C 22.516 177.584,22.356 178.041,22.449 178.041 C 22.542 178.041,22.854 177.584,23.142 177.027 C 23.430 176.470,23.590 176.014,23.497 176.014 C 23.404 176.014,23.092 176.470,22.804 177.027 M368.412 180.068 C 368.124 180.625,367.964 181.081,368.057 181.081 C 368.150 181.081,368.462 180.625,368.750 180.068 C 369.038 179.510,369.198 179.054,369.105 179.054 C 369.012 179.054,368.700 179.510,368.412 180.068 M23.131 182.601 C 23.651 183.530,24.233 184.443,24.425 184.628 C 24.617 184.814,24.348 184.206,23.828 183.277 C 23.308 182.348,22.726 181.436,22.535 181.250 C 22.343 181.064,22.611 181.672,23.131 182.601 M25.496 186.655 C 26.016 187.584,26.598 188.497,26.790 188.682 C 26.981 188.868,26.713 188.260,26.193 187.331 C 25.673 186.402,25.091 185.490,24.899 185.304 C 24.708 185.118,24.976 185.726,25.496 186.655 M363.007 189.527 C 362.718 190.084,362.559 190.541,362.652 190.541 C 362.744 190.541,363.056 190.084,363.345 189.527 C 363.633 188.970,363.793 188.514,363.700 188.514 C 363.607 188.514,363.295 188.970,363.007 189.527 M27.861 190.709 C 28.381 191.639,28.963 192.551,29.155 192.736 C 29.346 192.922,29.078 192.314,28.558 191.385 C 28.038 190.456,27.456 189.544,27.264 189.358 C 27.073 189.172,27.341 189.780,27.861 190.709 M30.226 194.764 C 30.746 195.693,31.328 196.605,31.519 196.791 C 31.711 196.976,31.443 196.368,30.923 195.439 C 30.403 194.510,29.821 193.598,29.629 193.412 C 29.438 193.226,29.706 193.834,30.226 194.764 M32.591 198.818 C 33.110 199.747,33.693 200.659,33.884 200.845 C 34.076 201.030,33.808 200.422,33.288 199.493 C 32.768 198.564,32.186 197.652,31.994 197.466 C 31.802 197.280,32.071 197.889,32.591 198.818 M34.222 201.605 C 35.240 203.448,37.274 206.757,37.390 206.757 C 37.566 206.757,37.646 206.908,35.821 203.801 C 35.030 202.454,34.315 201.351,34.232 201.351 C 34.149 201.351,34.145 201.465,34.222 201.605 M38.334 208.615 C 38.854 209.544,39.436 210.456,39.628 210.642 C 39.819 210.828,39.551 210.220,39.031 209.291 C 38.511 208.361,37.929 207.449,37.737 207.264 C 37.546 207.078,37.814 207.686,38.334 208.615 M40.699 212.669 C 41.219 213.598,41.801 214.510,41.992 214.696 C 42.184 214.882,41.916 214.274,41.396 213.345 C 40.876 212.416,40.294 211.503,40.102 211.318 C 39.911 211.132,40.179 211.740,40.699 212.669 M43.064 216.723 C 43.583 217.652,44.166 218.564,44.357 218.750 C 44.549 218.936,44.280 218.328,43.761 217.399 C 43.241 216.470,42.659 215.557,42.467 215.372 C 42.275 215.186,42.544 215.794,43.064 216.723 M44.695 219.510 C 45.713 221.354,47.747 224.662,47.862 224.662 C 48.039 224.662,48.119 224.813,46.294 221.706 C 45.503 220.359,44.788 219.257,44.705 219.257 C 44.622 219.257,44.618 219.371,44.695 219.510 M48.807 226.520 C 49.327 227.449,49.909 228.361,50.101 228.547 C 50.292 228.733,50.024 228.125,49.504 227.196 C 48.984 226.267,48.402 225.355,48.210 225.169 C 48.019 224.983,48.287 225.591,48.807 226.520 M51.172 230.574 C 51.692 231.503,52.274 232.416,52.465 232.601 C 52.657 232.787,52.389 232.179,51.869 231.250 C 51.349 230.321,50.767 229.409,50.575 229.223 C 50.383 229.037,50.652 229.645,51.172 230.574 M53.537 234.628 C 54.056 235.557,54.639 236.470,54.830 236.655 C 55.022 236.841,54.753 236.233,54.234 235.304 C 53.714 234.375,53.132 233.463,52.940 233.277 C 52.748 233.091,53.017 233.699,53.537 234.628 M336.655 235.811 C 336.367 236.368,336.207 236.824,336.300 236.824 C 336.393 236.824,336.705 236.368,336.993 235.811 C 337.282 235.253,337.441 234.797,337.348 234.797 C 337.256 234.797,336.944 235.253,336.655 235.811 M55.168 237.416 C 56.186 239.259,58.220 242.568,58.335 242.568 C 58.512 242.568,58.592 242.719,56.767 239.611 C 55.976 238.264,55.261 237.162,55.178 237.162 C 55.095 237.162,55.091 237.276,55.168 237.416 M335.304 238.176 C 335.016 238.733,334.856 239.189,334.949 239.189 C 335.042 239.189,335.354 238.733,335.642 238.176 C 335.930 237.618,336.090 237.162,335.997 237.162 C 335.904 237.162,335.592 237.618,335.304 238.176 M59.280 244.426 C 59.800 245.355,60.382 246.267,60.573 246.453 C 60.765 246.639,60.497 246.030,59.977 245.101 C 59.457 244.172,58.875 243.260,58.683 243.074 C 58.492 242.889,58.760 243.497,59.280 244.426 M61.645 248.480 C 62.165 249.409,62.747 250.321,62.938 250.507 C 63.130 250.693,62.862 250.084,62.342 249.155 C 61.822 248.226,61.240 247.314,61.048 247.128 C 60.856 246.943,61.125 247.551,61.645 248.480 M64.010 252.534 C 64.529 253.463,65.112 254.375,65.303 254.561 C 65.495 254.747,65.226 254.139,64.707 253.209 C 64.187 252.280,63.605 251.368,63.413 251.182 C 63.221 250.997,63.490 251.605,64.010 252.534 M66.374 256.588 C 66.894 257.517,67.476 258.429,67.668 258.615 C 67.860 258.801,67.591 258.193,67.071 257.264 C 66.552 256.334,65.970 255.422,65.778 255.236 C 65.586 255.051,65.855 255.659,66.374 256.588 M68.739 260.642 C 69.259 261.571,69.841 262.483,70.033 262.669 C 70.225 262.855,69.956 262.247,69.436 261.318 C 68.917 260.389,68.334 259.476,68.143 259.291 C 67.951 259.105,68.220 259.713,68.739 260.642 M70.370 263.429 C 71.388 265.273,73.423 268.581,73.538 268.581 C 73.715 268.581,73.795 268.732,71.970 265.625 C 71.179 264.278,70.463 263.176,70.381 263.176 C 70.298 263.176,70.293 263.290,70.370 263.429 M74.483 270.439 C 75.002 271.368,75.585 272.280,75.776 272.466 C 75.968 272.652,75.699 272.044,75.180 271.115 C 74.660 270.186,74.078 269.274,73.886 269.088 C 73.694 268.902,73.963 269.510,74.483 270.439 M76.847 274.493 C 77.367 275.422,77.949 276.334,78.141 276.520 C 78.333 276.706,78.064 276.098,77.544 275.169 C 77.025 274.240,76.443 273.328,76.251 273.142 C 76.059 272.956,76.328 273.564,76.847 274.493 M79.212 278.547 C 79.732 279.476,80.314 280.389,80.506 280.574 C 80.698 280.760,80.429 280.152,79.909 279.223 C 79.390 278.294,78.807 277.382,78.616 277.196 C 78.424 277.010,78.692 277.618,79.212 278.547 M80.847 281.334 C 82.726 284.658,86.257 290.541,86.372 290.541 C 86.457 290.541,86.462 290.427,86.383 290.287 C 84.504 286.964,80.973 281.081,80.858 281.081 C 80.773 281.081,80.768 281.195,80.847 281.334 M87.320 292.399 C 87.840 293.328,88.422 294.240,88.614 294.426 C 88.806 294.611,88.537 294.003,88.017 293.074 C 87.498 292.145,86.915 291.233,86.724 291.047 C 86.532 290.861,86.801 291.470,87.320 292.399 M89.685 296.453 C 90.205 297.382,90.787 298.294,90.979 298.480 C 91.171 298.666,90.902 298.057,90.382 297.128 C 89.862 296.199,89.280 295.287,89.089 295.101 C 88.897 294.916,89.165 295.524,89.685 296.453 M300.845 298.649 C 300.556 299.206,300.396 299.662,300.489 299.662 C 300.582 299.662,300.894 299.206,301.182 298.649 C 301.471 298.091,301.631 297.635,301.538 297.635 C 301.445 297.635,301.133 298.091,300.845 298.649 M92.050 300.507 C 92.570 301.436,93.152 302.348,93.344 302.534 C 93.535 302.720,93.267 302.111,92.747 301.182 C 92.227 300.253,91.645 299.341,91.454 299.155 C 91.262 298.970,91.530 299.578,92.050 300.507 M94.415 304.561 C 94.935 305.490,95.517 306.402,95.709 306.588 C 95.900 306.774,95.632 306.166,95.112 305.236 C 94.592 304.307,94.010 303.395,93.818 303.209 C 93.627 303.024,93.895 303.632,94.415 304.561 M97.793 310.304 C 98.313 311.233,98.895 312.145,99.087 312.331 C 99.279 312.517,99.010 311.909,98.490 310.980 C 97.971 310.051,97.388 309.139,97.197 308.953 C 97.005 308.767,97.274 309.375,97.793 310.304 M100.158 314.358 C 100.678 315.287,101.260 316.199,101.452 316.385 C 101.644 316.571,101.375 315.963,100.855 315.034 C 100.335 314.105,99.753 313.193,99.562 313.007 C 99.370 312.821,99.638 313.429,100.158 314.358 M102.523 318.412 C 103.043 319.341,103.625 320.253,103.817 320.439 C 104.008 320.625,103.740 320.017,103.220 319.088 C 102.700 318.159,102.118 317.247,101.927 317.061 C 101.735 316.875,102.003 317.483,102.523 318.412 M104.888 322.466 C 105.408 323.395,105.990 324.307,106.182 324.493 C 106.373 324.679,106.105 324.071,105.585 323.142 C 105.065 322.213,104.483 321.301,104.291 321.115 C 104.100 320.929,104.368 321.537,104.888 322.466 M108.342 328.378 C 108.864 329.307,109.398 330.067,109.530 330.067 C 109.662 330.067,109.297 329.307,108.719 328.378 C 107.362 326.195,107.116 326.195,108.342 328.378 M249.747 329.307 C 253.788 329.361,260.401 329.361,264.443 329.307 C 268.484 329.253,265.177 329.209,257.095 329.209 C 249.012 329.209,245.705 329.253,249.747 329.307 M186.233 329.645 C 189.903 329.699,195.908 329.699,199.578 329.645 C 203.247 329.590,200.245 329.546,192.905 329.546 C 185.566 329.546,182.563 329.590,186.233 329.645 M122.213 329.983 C 125.232 330.038,130.173 330.038,133.193 329.983 C 136.212 329.927,133.742 329.881,127.703 329.881 C 121.664 329.881,119.193 329.927,122.213 329.983 " stroke="none" fill="#e0c7ee" fill-rule="evenodd"></path><path id="path3" d="M179.165 91.807 C 190.281 91.857,208.372 91.857,219.367 91.807 C 230.362 91.758,221.267 91.718,199.155 91.718 C 177.044 91.718,168.048 91.758,179.165 91.807 M177.280 166.807 C 188.661 166.857,207.285 166.857,218.666 166.807 C 230.046 166.758,220.735 166.718,197.973 166.718 C 175.211 166.718,165.899 166.758,177.280 166.807 M177.449 204.645 C 188.923 204.695,207.698 204.695,219.172 204.645 C 230.646 204.596,221.258 204.556,198.311 204.556 C 175.363 204.556,165.976 204.596,177.449 204.645 " stroke="none" fill="#9b63c3" fill-rule="evenodd"></path><path id="path4" d="M156.001 53.955 C 156.421 54.036,157.029 54.033,157.352 53.948 C 157.675 53.864,157.331 53.798,156.588 53.801 C 155.845 53.805,155.580 53.874,156.001 53.955 M273.389 93.581 C 273.389 94.231,273.459 94.497,273.544 94.172 C 273.629 93.847,273.629 93.315,273.544 92.990 C 273.459 92.665,273.389 92.931,273.389 93.581 M156.582 130.405 C 156.582 150.566,156.623 158.813,156.672 148.733 C 156.722 138.653,156.722 122.158,156.672 112.078 C 156.623 101.997,156.582 110.245,156.582 130.405 M241.717 129.223 C 241.717 148.361,241.758 156.141,241.807 146.511 C 241.857 136.881,241.857 121.223,241.807 111.714 C 241.757 102.205,241.717 110.084,241.717 129.223 M273.412 165.541 C 273.412 166.563,273.475 166.981,273.553 166.470 C 273.630 165.959,273.630 165.122,273.553 164.611 C 273.475 164.101,273.412 164.519,273.412 165.541 M261.130 194.848 L 259.966 196.115 261.233 194.951 C 262.412 193.867,262.655 193.581,262.397 193.581 C 262.341 193.581,261.771 194.151,261.130 194.848 M156.419 252.939 C 156.326 279.733,156.365 301.541,156.505 301.401 C 156.645 301.261,156.721 279.339,156.673 252.685 L 156.588 204.223 156.419 252.939 " stroke="none" fill="#844eae" fill-rule="evenodd"></path></g></svg>